<?xml version="1.0" encoding="UTF-8"?>
<svg width="126px" height="102px" viewBox="0 0 126 102" version="1.1" xmlns="http://www.w3.org/2000/svg" xmlns:xlink="http://www.w3.org/1999/xlink">
    <title>maple-stack@2x</title>
    <g id="Facebook" stroke="none" stroke-width="1" fill="none" fill-rule="evenodd">
        <g id="Profile-Photo---Small---Wht" transform="translate(-27.000000, -39.000000)" fill="#FF8802">
            <g id="maple-stack" transform="translate(27.000000, 39.000000)">
                <path d="M120.594632,67.6717854 C123.012506,70.3883599 124.334579,73.3201086 124.334579,76.3783944 C124.334579,90.4282927 96.501129,101.81541 62.1664618,101.81541 C27.8317946,101.81541 0.000183961998,90.4282927 0.000183961998,76.3783944 C0.000183961998,73.3201086 1.32164431,70.3883599 3.74013137,67.6717854 C12.4286565,77.432259 35.3067837,84.4040259 62.1664618,84.4040259 C72.9601254,84.4040259 83.1105352,83.2768064 91.9566545,81.2962256 L91.9566545,81.2962256 L91.9566545,87.6469214 C91.9566545,90.0511265 93.9115573,92.0005315 96.3232991,92.0005315 C98.7362673,92.0005315 100.69117,90.0511265 100.69117,87.6469214 L100.69117,87.6469214 L100.69117,78.9219737 C109.64644,76.023846 116.614307,72.1427633 120.594632,67.6717854 Z M3.91607506,41.9090743 C12.1501473,51.5598228 34.1421605,58.5545198 60.2524342,58.9369276 L60.2524342,58.9369276 L60.2524342,64.0569088 C60.2524342,67.0329591 62.2231018,69.4430458 64.6492451,69.4430458 C67.0766129,69.4430458 69.0436073,67.0329591 69.0436073,64.0569088 L69.0436073,64.0569088 L69.0436073,58.8176164 C76.1402144,58.512302 82.8707266,57.7101635 89.0496479,56.5072616 C89.5969535,56.5066497 92.5116315,56.7024425 92.5826465,60.7896168 L92.5826465,60.7896168 L92.5826465,72.2532841 C83.7516805,74.235686 73.6179558,75.36333 62.8414224,75.36333 C32.2596496,75.36333 6.86442391,66.2877228 1.73848436,54.3468106 C1.11893929,52.9028389 0.777944627,51.4203204 0.777944627,49.9035382 C0.777944627,47.10982 1.89030963,44.4237878 3.91607506,41.9090743 Z M121.594478,41.9909619 C123.863443,44.6270447 125.111404,47.4578938 125.111404,50.4094001 C125.111404,51.92772 124.76571,53.4117416 124.139874,54.8571773 C121.422559,61.1301234 113.066536,66.6093048 101.267178,70.404186 L101.267178,70.404186 L101.267178,57.8889175 L101.275217,57.8748306 L101.275217,57.8748306 L101.271186,57.8424376 L101.271186,57.8424376 L101.267178,57.8068461 L101.267178,56.5114662 C101.377874,55.3440931 101.842922,53.7547263 103.495327,53.1202045 C105.661016,52.3601258 107.698694,51.5479869 109.558267,50.6182533 C117.32927,46.7321136 120.339096,43.5350057 121.594478,41.9909619 Z M62.1681175,-4.97379915e-14 C96.5009451,-4.97379915e-14 124.334395,11.3883399 124.334395,25.4382382 C124.334395,26.9542384 123.991613,28.435395 123.371661,29.877429 C118.626055,40.9026624 96.5420299,49.4784553 69.0421641,50.7175409 C69.0421641,45.4690016 69.1513149,39.8824188 71.1056045,36.3522168 C73.3971578,32.2137809 81.8624757,30.1201113 83.8652087,29.0093966 C88.8297298,27.069161 91.8988291,24.3935429 91.8988291,21.4391765 C91.8988291,15.5127162 79.5598847,10.708585 64.3364162,10.708585 C49.1129477,10.708585 36.7721637,15.5127162 36.7721637,21.4391765 C36.7721637,23.0083589 37.6441436,24.4962397 39.1992357,25.8392447 C39.4371598,26.0648108 39.7364047,26.3019915 40.096357,26.551398 C41.0051293,27.2030335 42.087439,27.8118788 43.3095599,28.3730434 C46.9060169,30.3517903 54.5343078,33.1973471 56.5333615,35.2268312 C59.6257627,38.3682525 59.9158094,45.3112887 59.9158094,50.4216763 L59.9158094,50.8520248 C30.2973146,50.4192312 5.97079324,41.5139528 0.962121247,29.877429 C0.342169316,28.435395 3.55271368e-14,26.9542384 3.55271368e-14,25.4382382 C3.55271368e-14,11.3883399 27.8334502,-4.97379915e-14 62.1681175,-4.97379915e-14 Z" id="Combined-Shape"></path>
            </g>
        </g>
    </g>
</svg>