<svg xmlns="http://www.w3.org/2000/svg" viewBox="0 0 75 85.45">
	<path fill="#808080" d="M75 33.28v28.94a3.72 3.72 0 0 1-1.68 3.11l-.18.12L39.36 85a3.75 3.75 0 0 1-3.52.11l-.2-.11L1.86 65.45a3.73 3.73 0 0 1-1.85-3V51.26l5.08 2.91.35.2a31.49 31.49 0 0 0 30.75-.09l.45-.26 2.07-1.21L67.1 36.19l.33-.19A24.22 24.22 0 0 1 75 33.28zM37.5 0a3.75 3.75 0 0 1 1.64.38l.22.12L73.14 20A3.72 3.72 0 0 1 75 23v2.7a31.33 31.33 0 0 0-11.14 3.71l-.55.31-2.07 1.22-28.4 16.61-.33.2a24 24 0 0 1-23.31.14l-.39-.22L0 42.62v-19.4a3.75 3.75 0 0 1 1.68-3.11l.18-.11L35.64.5A3.73 3.73 0 0 1 37.5 0z" />
</svg>
